<svg id="Capa_1" data-name="Capa 1" xmlns="http://www.w3.org/2000/svg" viewBox="0 0 533.66 612.18"><defs><style>.cls-1{fill:#dd8d34;}.cls-2{fill:#dd8d33;}.cls-3{fill:#dd8e35;}.cls-4{fill:#622f82;}.cls-5{fill:#623082;}.cls-6{fill:#77358b;}</style></defs><path class="cls-1" d="M468.58,584.39c0-11.53.14-23.07-.08-34.6-.08-4.17.64-6.26,5.54-6.1,10.54.35,21.11.36,31.65,0,5.26-.18,5.31,2.61,5.22,6.39-.09,3.56.41,6.94-5,6.69-6.61-.3-13.25-.09-19.87,0-1.87,0-4.26-.42-4.31,2.56-.09,5.4-.07,10.79,0,16.19,0,3,2.3,2.62,4.2,2.64,4.17,0,8.39.41,12.51-.07,5.73-.66,5.58,2.7,5.66,6.71s-.19,7.47-5.71,6.43a3.65,3.65,0,0,0-.74,0c-17.62.23-17.5.22-16.07,18.13.27,3.35,1.5,4.07,4.46,4,6.62-.14,13.26.22,19.87-.13,4.59-.25,5.42,1.9,5,5.7-.32,3.18,1.24,7.19-4.55,7.1q-16.56-.27-33.12,0c-4.21.07-4.72-2.11-4.68-5.54C468.65,608.43,468.58,596.41,468.58,584.39Z" transform="translate(-13.34 -14.5)"/><path class="cls-2" d="M416.78,584.43c0-11.77.16-23.54-.09-35.3-.08-4.15,1.13-5.53,5.35-5.42,10.54.27,21.1.39,31.62,0,5.53-.23,5.59,2.54,5.74,6.67.17,4.65-1.07,6.71-6.08,6.44-6.36-.35-12.75-.06-19.12-.09-2.4,0-4.42.24-4.37,3.42.07,4.9.09,9.81,0,14.71-.07,3.29,2,3.33,4.38,3.32,4.41,0,8.85.29,13.23-.08,5.55-.46,5,3.08,5,6.58-.06,3.34.91,7.35-4.79,6.54a9,9,0,0,0-1.47,0c-16.31.24-16.31.24-16.31,16.33,0,3.68-.4,7.41.08,11,.86,6.53-2.17,7.8-7.95,7.57-4.3-.17-5.32-1.63-5.25-5.64C416.92,608.45,416.78,596.44,416.78,584.43Z" transform="translate(-13.34 -14.5)"/><path class="cls-1" d="M338.92,584.9c0-11.28.18-22.57-.09-33.85-.11-4.86.32-7.56,6.49-7.5,5.72.06,6.85,1.84,6.76,7.14-.31,18.88.05,37.77-.24,56.66-.08,4.95,1.5,6.29,6.2,6,6.36-.38,12.77.17,19.13-.17,5.53-.3,4.2,3.43,4.21,6.35s1.17,6.57-4.21,6.46q-16.56-.33-33.12,0c-4.45.09-5.26-1.92-5.2-5.8C339,608.45,338.92,596.68,338.92,584.9Z" transform="translate(-13.34 -14.5)"/><path class="cls-3" d="M403.76,585.29c0,11.78-.23,23.55.12,35.32.15,5.08-2.29,5.47-6.25,5.43s-7,0-6.9-5.66q.39-35.67,0-71.36c-.07-6,3.41-5.07,7.1-5.3,4.18-.26,6.19.64,6.05,5.52C403.53,561.25,403.76,573.28,403.76,585.29Z" transform="translate(-13.34 -14.5)"/><path class="cls-4" d="M211.14,578c-6.16,14.07-12.66,28-18.32,42.29-2.18,5.49-5.67,5.54-10.29,5.63s-7.46-.67-9.44-5.67a377.42,377.42,0,0,0-19.64-42c0,13.52-.22,27,.11,40.57.12,5.19-.94,7.23-6.75,7.27-6.12.05-5.83-3-5.81-7.24.11-22.56,0-45.12.19-67.69,0-2.32-2.45-6.87,2.44-6.93,4.51-.06,10-2.79,12.89,4.53,7.08,17.72,15,35.1,22.59,52.62,1.06,2.45,2.16,4.89,3.71,8.36,1.51-3.05,2.7-5.21,3.69-7.47,7.76-17.7,15.86-35.27,23-53.22,2.88-7.22,8.11-5,12.72-4.88,5.41.12,2.85,4.84,2.87,7.36.22,22.81,0,45.62.25,68.43.06,5-1.69,6.13-6.31,6-4.33-.1-6.68-.59-6.54-5.91.36-13.89.12-27.8.12-41.7Z" transform="translate(-13.34 -14.5)"/><path class="cls-5" d="M250.69,571.32c0,16.19-.23,32.38.13,48.56.12,5.54-2.12,6.25-6.87,6.37-5.12.13-6-1.89-6-6.4.19-22.33,0-44.66.21-67,0-2.86-2.49-7.75,2.54-8.39s10.2-1.94,13.83,4.7c8.47,15.46,17.91,30.39,27,45.53.95,1.59,2,3.1,4.2,6.4,0-17.83,0-33.64,0-49.45,0-6.71,5.13-9.94,11.32-7.35,2.33,1,1.61,2.79,1.61,4.32q.07,36.43,0,72.87c0,1.74.87,4.63-2.22,4.42-4.74-.33-10.15,2.45-13.7-3.8-7.86-13.85-16.21-27.42-24.38-41.09-2.08-3.48-4.25-6.91-6.38-10.36Z" transform="translate(-13.34 -14.5)"/><path class="cls-4" d="M324,584.71c0,12-.2,24.06.11,36.08.11,4.66-2,5.25-5.76,5-3.33-.21-6.73.86-6.67-4.83q.38-36.09,0-72.17c0-4.75,2.11-5.18,5.77-4.93,3.26.23,6.86-1.06,6.68,4.75C323.71,560.65,324,572.68,324,584.71Z" transform="translate(-13.34 -14.5)"/><path class="cls-5" d="M91.4,543a41.85,41.85,0,0,0-.55,83.69c23.88.06,42.27-17.94,42.4-41.5A41.63,41.63,0,0,0,91.4,543Zm-.78,70.92c-16.23-.39-28.76-13.73-28.43-30.3.3-15.88,13.4-28.09,29.87-27.85,15.44.22,28.36,13.39,28.38,29C120.47,600.68,106.57,614.29,90.62,613.91Z" transform="translate(-13.34 -14.5)"/><path class="cls-6" d="M518.38,157.31c-10.22-18.62-21.12-36.63-35.79-52.25-12.48-13.29-25-26.36-40-36.91-10.51-7.37-21-14.67-32.36-20.79A269.37,269.37,0,0,0,336,20.28C285.51,9.91,236,13.56,187.48,30.77c-23.67,8.42-45.52,20.41-66,34.83C107,75.76,94.38,88.06,82,100.62,69.46,113.43,59.33,128.31,50,143.44c-21.35,34.48-31.57,72.81-35.73,112.8-1.68,16-.83,32.06,1.51,48.18,5.48,38,16.12,73.94,37.64,106.21C64.26,427,75.43,443,90,456.46c11.53,10.71,23,21.3,36.1,30.24A270.89,270.89,0,0,0,280,534.77a270.94,270.94,0,0,0,98.35-17.95c26.38-10,50.34-24.35,72.54-41.67,13.25-10.35,24.6-22.69,35.79-35.1,14.47-16,25.42-34.66,35.06-53.79,15.93-31.63,24-65.6,25.1-100.95C548.3,240.28,540.28,197.25,518.38,157.31Zm-47.09,228c-10.86,17.63-23.78,34.06-39.53,47.84-23.95,20.95-50.8,37.18-81.2,46.83-40,12.69-80.69,14.55-121.72,5a224.44,224.44,0,0,1-82.08-37.88c-15.26-11.11-28-24.45-40.21-38.65C84.34,382.56,71.4,352.37,63.9,319.51c-.88-.89-1-2.17-1.68-3.15a223.57,223.57,0,0,1,0-83.47c.67-1,.8-2.28,1.68-3.17C70,201.1,81.07,174.49,98.37,150.89c12.27-16.74,26.27-32.2,42.88-44.88,24.62-18.8,51.74-32.88,81.91-40.45,40.39-10.17,80.69-9.87,120.85,1.86a225,225,0,0,1,82.11,44.17c16,13.38,28.82,29.22,40.7,46.14C511,220.52,514.91,314.64,471.29,385.33Z" transform="translate(-13.34 -14.5)"/><path class="cls-6" d="M196.25,132.91a15,15,0,0,1-8.46-2c-3-1.9-6.35-.49-10.36-1.36a87.93,87.93,0,0,1,15.16-10q8.58-4.6,17.51-8.49a183.81,183.81,0,0,1,99-13.84,188.95,188.95,0,0,1,93.73,40.36c3.88,3.22,3.47,5.38-1.33,7.46-2.81,1.22-5.94,1.82-7.94,4.52s-1.49,5.43,1.77,6.26a3.67,3.67,0,0,1,3,3.05c.8,3.21,2.4,3.82,5.29,2.18,1-.54,2.75-2.19,3.52-.34a12.94,12.94,0,0,1,.85,6.78c-.24,1.43-2.45.69-3.73.44-6.07-1.17-11.23-.55-14.57,5.65-2,3.7-5.77,4.81-9.81,4.93-2.13.06-3.76,1-3.61,3.25.13,2-2.44,4.63,1.39,5.77,2.39.71,1.09,2.56.86,3.88-.31,1.83-1.79,1.32-3,1a23.9,23.9,0,0,0-12.34-.13c-2.36.61-3.75,1.87-3.87,3.94-.49,8.71-.33,14.14,10.12,13.59,1.23-.07,2.48,0,3.72,0,3.51-.08,6.35-.49,7.79-4.78,1-3.06,3.68-5.71,6-8.14,1.87-1.94,3.74-4.23,7.43-2.8,3.4,1.32,4.52-3.11,7.34-4,1.68,5.69,7.52,6.84,11.31,10.27,1.16,1,3.75,1.16,3.24,3.26-.6,2.46-3,1.51-4.75,1.53h-2c1.27,3.26,3.52,4.25,6.36,3.73,2.67-.49,3.17-2.43,4.13-5,1.84-4.94-1.33-5.76-4.11-7-4.18-1.86-6.74-4.69-7.06-9.33a14,14,0,0,1,16.58,12.13c.26,3,.26,3,7.77,9,2.5-3.72.55-10.39,7.59-11.33.2,1.75.35,3.42.59,5.08.72,5,4,8,9.1,7.64,3.71-.26,5.79.63,7.07,4.5,3.56,10.66,3.75,10.57-7.7,10.61-2.65,0-5.31.24-7.33-2-4-4.39-8.92-5-14.35-3.58-2,1.28-.24,4-2,5.33a3.57,3.57,0,0,1-3.15-.21c-3.76-2.82-8.33-3.46-12.67-4.16-4.86-.78-6.68-2.91-5.81-7.63.59-3.26-.78-4.42-4.08-3.94-7.7,1.11-15.7-.11-23,4.15-2.33,1.36-6.07.54-9.14.32a11,11,0,0,0-5.29,1c-5.36,2.21-8.89,5.3-7.4,11.74.52,2.21-1,3.35-2.58,4.44-5.37,3.61-10.76,7.21-16.05,11-2.46,1.74-2,6.73.77,7.35,5.45,1.22,2.18,5,1.06,5.77-2.14,1.54-1.73,3.26-2.16,5.14-2.6,11.49,5.55,17.63,12,24.79,4.59,5.12,9.4,7.72,16.38,4.82,2.12-.88,4.91-.22,7.38-.11a7.52,7.52,0,0,0,5.88-2c3.16-2.88,7.92-2.75,10.3-.64,4,3.51,8.24,3.8,12.78,4.2,2.07.18,2.92,1.14,2.29,3-3.58,10.4,1.42,18.72,6.92,26.57,4,5.66,4.12,10.3.28,16.13-4.16,6.32-3.55,8.38,1.7,14.13a6.06,6.06,0,0,1,1.46,5.11c-.69,6.86.24,13.13,5.51,18.25,2.41,2.35,1.14,5.61,1.23,8.46.17,5,.05,5,4.91,5.24.63,1.54-.79,2.18-1.49,3-9.65,11.4-20.35,21.78-32.81,30-47.15,31.19-98.3,40.76-153.38,27.11-30.35-7.52-56.65-22.41-79.81-43.51-16.55-15.08-28.88-32.86-38.89-52.57C95.66,305.26,95.69,257.88,113,209.73a25.18,25.18,0,0,1,1.4-2.86c0-.07.27,0,.49-.07.9.67.45,1.71.33,2.46-.63,3.93.45,6.49,4.76,7.31,3.06.58,4.25,2.68,3.72,5.82-1.29,7.51,1.54,13.81,5.61,19.9,1.8,2.71,4.43,3.79,6.61,2.57,2.33-1.31,1.12-4.05-.31-6.07-3.25-4.56-6.36-9.19-6.13-15.15,0-1.24-.87-2.93,1.42-3.21,1.86-.22,2.53.82,2.54,2.45.07,8,5.25,13.63,9.32,19.76.81,1.22,2.28,2.27,1.33,4.1s-2.53,3.27-.63,5.39c2.67,3,3.35,7.78,8.43,8.54a71.2,71.2,0,0,1,10.4,2.38c2.6.81,4-3.4,6.72-1.31.62.48,2.35.06,2.07,1.23-1.12,4.64,2.48,4,4.89,4.52,4.5.94,8.68,2.32,11.23,6.53,3.91,6.45,9.69,9,17.11,8.5,1.55-.1,4.19-1,4.37,2,.22,3.51,2.63,7.17-.3,10.55a8.2,8.2,0,0,1-2.66,1.85c-4.28,2-4.8,5.64-5.77,10-1.88,8.39,1.42,14.05,6.67,19.69,3,3.22,6.39,6.44,6.56,11.4.05,1.32,1.14,1.79,2.27,1.94,5.26.7,8.57,4.72,12.7,7.34,1.76,1.12,1.78,2.67,1.77,4.42,0,7.74.11,15.49-.08,23.23-.07,3,.3,5.19,3.88,5.39.86.05.61.92.76,1.46-.79.85-.89,2.08-1.61,3-.23,1.21-.43,2.44-.7,3.64-.86,3.83-1.43,7.25,2.7,10.08,3,2.07,4,5.63,3.08,9.52-2.6,10.78,3.78,18.24,10.05,25.44,4.06,4.65,8.79,8.88,16,7.26,1.16-.26,2.51.23,3.09-1.36s0-2.66-1.28-3.57c-.63-.46-1.15-1.07-1.81-1.46-3.79-2.23-4.72-5.13-2.91-9.29,1.29-3,1.93-6-3.37-6-3.14,0-3.72-2.95-1.4-5.38s4.93-4.84-.8-6.24a1.63,1.63,0,0,1-1.25-2.12c.21-1.19,1.2-1.4,2.08-1.46,5.44-.36,9.85-3.49,14.74-5.34a4.32,4.32,0,0,0,2.76-2.21c2.74-5.82,7-10.57,11-15.46,2.17-2.64,3.19-5.06,1.87-8.36a20.83,20.83,0,0,1-1.11-5,6.55,6.55,0,0,1,6.88-7.55c9.57.37,12.88-2.46,14-12,.21-1.85.47-3.69.62-5.54.43-5.34.39-10.79,5.73-14.25,1.35-.88,2.28-2.53,3.18-4,2.9-4.65,2.11-7.12-3-8.52a6.88,6.88,0,0,1-5-4.26c-1.37-3.38-3.73-4.44-7.29-4.1a39.54,39.54,0,0,1-20.32-3.53c-2.32-1-3.54-2.16-3.47-4.69a27.25,27.25,0,0,0-.29-3.7c-.63-6.16-3.93-9.5-10-9.13-4.74.3-8-1-9.88-5.47-.59-1.4-1.34-3.1-2.53-3.82-2.07-1.26-3.63-6.09-7.21-1.28-1.53,2.06-10,.78-11.77-1.35-3.55-4.31-8.75-4.48-13.5-4.74-2.68-.15-3.79,3.71-5.83,5.54-1.57,1.41-2.37,4.35-4.64,4.18A102,102,0,0,1,198.44,277c-.39-.09-.69-.91-.89-1.44a4.83,4.83,0,0,1-.12-1.38c-.3-4,.46-8.56-1.2-11.9s-7.09-1.4-10.73-3.54l3.19-6a4.12,4.12,0,0,0-.4-4.8c-1.32-1.36-2.41.62-3.46,1.25-2.66,1.59-5.14,3.46-7.74,5.14-5.25,3.38-11,1.42-13.48-4.19-1.06-2.37-.12-4.24.37-6.26,2.65-10.87,11.11-17.24,22.16-17.07,4.5.07,9,0,13.49,0,1.42,0,3.24-.06,2.84,2-1.15,6,3.71,5.91,6.89,7.63a2.79,2.79,0,0,0,.38-2.93c-1.73-6.88,1.86-11.07,7.16-14.45,2.09-1.34,4.11-2.79,6.23-4.06,1.81-1.09,3.28-2.27,3.21-4.66a5.57,5.57,0,0,1,2-4c5-5.06,9.94-10.21,16.55-13.09,4.52-2,6.35-6.5,10-9.29,1.86-1.43,3.31-2.74,5.63-1s2.48-1.08,3.61-1.6c-.09-1.28-.92-.89-1.41-1.11-1.55-.68-3.94-.21-4-2.94a2.52,2.52,0,0,1,1.92-2.81c2-.43,4-.65,5.66,1,2.92,2.8,7.67,3.1,10.54.35,1.1-1.06,2-1.64,3-.64,1.24,1.16.85,2.48-.39,3.57-3.26,2.89-1.79,4.38,1.58,5.34,2.08.6,4.14,1.29,6.22,1.89,1.19.34,2.61.83,3-.94.29-1.29.67-2.85-1-3.66s-3.38-1.55-5.05-2.35c-.85-.4-1.81-.85-1.86-1.89-.06-1.19,1.07-1.3,1.92-1.62,2.24-.84,4.54-1.11,4.68-4.66.14-3.32-1.74-4.38-3.93-5.48s-3.23-2.61-3-5.12c.17-2.13,0-4.28,0-6.74-3.49.55-5.79,2.5-8.47,3.53-4.53,1.74-6,.86-5.09-3.67.58-3-.17-4.29-3.16-4.67-2.14-.27-4.23-.95-6.35-1.42-4.4-1-8.51,2.07-8.15,6.58.49,6,0,10.79-7.5,11.31-1.58.11-2.36,1.3-3,2.62-.71,1.55-1.39,3.11-2.19,4.61-1,1.85-2.85,1.8-4.49,1.54s-1.32-2-1.13-3.06c1.05-5.68-1.43-7.87-6.93-7.64-2.08.09-3.85-1.19-5.4-2.48-3.52-2.93-3.13-7.21.77-9.5,5.86-3.43,11.46-7.34,18.28-8.82,1.8-.39,2.67-.47,3.15,1.79.7,3.23,3,3.77,4.78,1,1.22-1.88,3.23-.81,4.4-2.29-2.31-2.45-2.88-4.4,1.65-4.41,1.09,0,2.27,0,2.93-1.07,3.55-5.49,9.54-4.26,14.67-5.28,3.14-.62,4.22,2.73,6.95,3.87-4.06,3.71-9.46,4-13.39,7.64,5.15,2.16,10.61,2.22,15.65,3.84,1.37.44,2-.59,2.22-1.74.66-3.63,3.17-4.19,6.2-3.71,2.81.45,4-1.31,4.68-3.45.89-2.7-1.67-2-2.83-2.44a2.31,2.31,0,0,1-1.64-2.88c.78-3.6-1.41-4.88-4.25-5.93a71.31,71.31,0,0,1-7.65-3.37c-6.67-3.43-13.18-1.71-19.71.41-3.23,1-4.73,3-4.07,6.61.21,1.11,1.14,3.24-.75,3.53s-4.63.46-5.93-1.58c-.92-1.45-1.5-3.45.43-5,1.42-1.16,2.69-2.5,4.51-4.2-4.55-.75-8.52-1.32-12.6-.57a3.64,3.64,0,0,0-3,3.14c-.47,2.08,1.28,1.67,2.33,1.94s1.43,1,1.22,2.08-.42,2.72-1.55,2.53c-6-1-10.15,5.06-16.35,4-2.75-.49-3.45-1-3.73-3.69-.33-3.19,1.56-3.06,3.33-2.74,5.31,1,7.64-3.06,10.79-5.88-2.7-2.28-2.7-2.28-4.68-.64-5.19,4.32-9.76,3.81-13.86-1.56-1.94-2.53-9.44-3.81-12.71-1.89s-6.31,4.21-10.65,7.15c3.65,0,6,0,8.39,0a2.42,2.42,0,0,1,2.61,1.46c.65,1.54-.28,2.28-1.44,2.92A2,2,0,0,1,196.25,132.91Z" transform="translate(-13.34 -14.5)"/></svg>